<?xml version="1.0" encoding="UTF-8"?> <svg xmlns="http://www.w3.org/2000/svg" xmlns:xlink="http://www.w3.org/1999/xlink" version="1.1" id="Layer_1" x="0px" y="0px" viewBox="0 0 625.8 113.5" style="enable-background:new 0 0 625.8 113.5;" xml:space="preserve"> <style type="text/css"> .st0{fill:none;} .st1{fill:#174F83;} .st2{fill:#FFFFFF;} .st3{fill:#57ABDE;} .st4{fill:#195083;} </style> <g> <rect x="86.5" class="st0" width="539.3" height="103"></rect> <path class="st1" d="M100.1,2.4h25.2c3.6,0,6.8,0.3,9.5,1c2.8,0.6,5,1.7,6.7,3.1c1.7,1.4,2.9,3.3,3.7,5.6c0.7,2.3,0.8,5.1,0.4,8.3 l-1.3,9.5c-0.5,3.6-1.5,6.5-3,8.8c-1.5,2.2-3.5,4-6,5.3c2.1,1.4,3.6,3.1,4.5,5.3c0.9,2.2,1.1,4.9,0.7,8.3l-1.3,9.6 c-1,6.6-3.6,11.5-8,14.6c-4.4,3.1-10.2,4.7-17.5,4.7H88.3L100.1,2.4z M115.2,66c0.6,0,1.2-0.2,1.7-0.7c0.5-0.5,0.9-1,1-1.7l2-14.5 c0.1-0.6-0.1-1.2-0.5-1.7c-0.4-0.5-0.9-0.7-1.6-0.7h-2.4L112.8,66H115.2z M118.8,22.8l-2.4,17.9h2.4c0.6,0,1.2-0.2,1.7-0.7 c0.5-0.5,0.8-1,0.9-1.7l1.9-13.1c0.1-0.6-0.1-1.2-0.5-1.7c-0.4-0.5-1-0.7-1.6-0.7H118.8z"></path> <path class="st1" d="M147.7,26.4h21.6l-8.4,60h-21.6L147.7,26.4z M149.9,11.9c0.5-3.3,1.8-5.7,4-7.2c2.2-1.5,4.9-2.3,8.1-2.3 c3.3,0,5.8,0.8,7.6,2.3c1.8,1.5,2.4,3.9,1.9,7.2c-0.5,3.4-1.8,5.8-4,7.4c-2.2,1.6-4.9,2.3-8.2,2.3c-3.2,0-5.7-0.8-7.5-2.3 C150.1,17.7,149.4,15.2,149.9,11.9z"></path> <path class="st1" d="M212.2,90c-0.5,3.3-1.5,6.3-3,8.9c-1.5,2.7-3.5,5-5.8,6.8c-2.4,1.9-5.1,3.3-8.2,4.3c-3.1,1-6.4,1.5-9.9,1.5 c-2.5,0-5-0.2-7.4-0.6c-2.5-0.4-4.8-0.9-6.8-1.4c-2.4-0.6-4.7-1.2-7-2l2.5-18c1.4,0.3,2.8,0.6,4.3,0.8c1.3,0.2,2.7,0.4,4.2,0.6 c1.5,0.2,3,0.2,4.4,0.2c2.4,0,4.4-0.3,5.9-0.8c1.5-0.5,2.7-1.1,3.5-1.7c0.8-0.6,1.4-1.3,1.7-2c0.3-0.7,0.5-1.2,0.5-1.5l1.1-7.1 c-1.3,2.8-3.2,5.1-5.8,6.8c-2.6,1.8-5.4,2.6-8.5,2.6c-1.8,0-3.5-0.4-5.1-1.1c-1.6-0.7-2.9-1.7-3.9-2.9c-1-1.2-1.8-2.6-2.3-4.3 c-0.5-1.6-0.6-3.4-0.4-5.2l5-35.5c0.2-1.8,0.8-3.6,1.8-5.2c1-1.6,2.1-3.1,3.5-4.3c1.4-1.2,2.9-2.2,4.7-2.9c1.8-0.7,3.6-1.1,5.4-1.1 c3,0,5.6,0.9,7.7,2.6c2.1,1.8,3.4,4,3.9,6.8l1.1-8.3h21.6L212.2,90z M191.3,67.2c0.7,0,1.3-0.2,1.9-0.7c0.5-0.5,0.8-1,0.9-1.7 l2.4-16.8c0.2-0.6,0-1.2-0.4-1.7c-0.4-0.5-1-0.7-1.7-0.7c-0.7,0-1.3,0.2-1.8,0.7c-0.5,0.5-0.8,1-1,1.7l-2.4,16.8 c-0.1,0.6,0.1,1.2,0.4,1.7C190,67,190.6,67.2,191.3,67.2z"></path> <path class="st1" d="M243.6,2.4h21.6l-11.8,84h-21.6L243.6,2.4z"></path> <path class="st1" d="M297.4,46.8c-1.8-1.2-4.1-1.8-6.8-1.8c-1.6,0-3.1,0.4-4.4,1.1c-1.3,0.8-2.1,2.1-2.3,3.9l-5.2,36.4h-21.6 l8.4-60h19.2l0.7,11.5c0.5-1.4,1.1-2.9,1.9-4.4c0.8-1.5,1.8-2.9,3-4.1c1.2-1.2,2.6-2.2,4.3-3c1.7-0.8,3.6-1.1,5.9-1.1L297.4,46.8z"></path> <path class="st1" d="M335.2,46.8c-1.8-1.2-4.1-1.8-6.8-1.8c-1.6,0-3.1,0.4-4.4,1.1c-1.3,0.8-2.1,2.1-2.3,3.9l-5.2,36.4h-21.6 l8.4-60h19.2l0.7,11.5c0.5-1.4,1.1-2.9,1.9-4.4c0.8-1.5,1.8-2.9,3-4.1c1.2-1.2,2.6-2.2,4.3-3c1.7-0.8,3.6-1.1,5.9-1.1L335.2,46.8z"></path> <path class="st1" d="M341.1,26.4h21.6l-8.4,60h-21.6L341.1,26.4z M343.2,11.9c0.5-3.3,1.8-5.7,4-7.2c2.2-1.5,4.9-2.3,8.1-2.3 c3.3,0,5.8,0.8,7.6,2.3c1.8,1.5,2.4,3.9,1.9,7.2c-0.5,3.4-1.8,5.8-4,7.4c-2.2,1.6-4.9,2.3-8.2,2.3c-3.2,0-5.7-0.8-7.5-2.3 C343.4,17.7,342.7,15.2,343.2,11.9z"></path> <path class="st1" d="M405.5,90c-0.5,3.3-1.5,6.3-3,8.9c-1.5,2.7-3.5,5-5.8,6.8c-2.4,1.9-5.1,3.3-8.2,4.3c-3.1,1-6.4,1.5-9.9,1.5 c-2.5,0-5-0.2-7.4-0.6c-2.5-0.4-4.8-0.9-6.8-1.4c-2.4-0.6-4.7-1.2-7-2l2.5-18c1.4,0.3,2.8,0.6,4.3,0.8c1.3,0.2,2.7,0.4,4.2,0.6 c1.5,0.2,3,0.2,4.4,0.2c2.4,0,4.4-0.3,5.9-0.8c1.5-0.5,2.7-1.1,3.5-1.7c0.8-0.6,1.4-1.3,1.7-2c0.3-0.7,0.5-1.2,0.5-1.5l1.1-7.1 c-1.3,2.8-3.2,5.1-5.8,6.8c-2.6,1.8-5.4,2.6-8.5,2.6c-1.8,0-3.5-0.4-5.1-1.1c-1.6-0.7-2.9-1.7-3.9-2.9c-1-1.2-1.8-2.6-2.3-4.3 c-0.5-1.6-0.6-3.4-0.4-5.2l5-35.5c0.2-1.8,0.8-3.6,1.8-5.2c1-1.6,2.1-3.1,3.5-4.3c1.4-1.2,2.9-2.2,4.7-2.9c1.8-0.7,3.6-1.1,5.4-1.1 c3,0,5.6,0.9,7.7,2.6c2.1,1.8,3.4,4,3.9,6.8l1.1-8.3h21.6L405.5,90z M384.6,67.2c0.7,0,1.3-0.2,1.9-0.7c0.5-0.5,0.8-1,0.9-1.7 l2.4-16.8c0.2-0.6,0-1.2-0.4-1.7c-0.4-0.5-1-0.7-1.7-0.7c-0.7,0-1.3,0.2-1.8,0.7c-0.5,0.5-0.8,1-1,1.7l-2.4,16.8 c-0.1,0.6,0.1,1.2,0.4,1.7C383.4,67,383.9,67.2,384.6,67.2z"></path> <path class="st1" d="M422.9,87.6c-1.8,0-3.5-0.4-5.1-1.1c-1.6-0.7-2.9-1.7-3.9-2.9c-1-1.2-1.8-2.6-2.3-4.3 c-0.5-1.6-0.6-3.4-0.4-5.2l5-35.5c0.2-1.8,0.8-3.6,1.8-5.2c1-1.6,2.1-3.1,3.5-4.3c1.4-1.2,2.9-2.2,4.7-2.9c1.8-0.7,3.6-1.1,5.4-1.1 c3,0,5.6,0.9,7.7,2.6c2.1,1.8,3.4,4,3.9,6.8l1.1-8.3H466l-8.4,60h-19.2l-0.5-10.1c-1,3.2-2.9,5.9-5.7,8S426.3,87.6,422.9,87.6z M436.2,67.2c0.7,0,1.3-0.2,1.9-0.7c0.5-0.5,0.8-1,0.9-1.7l2.4-16.8c0.2-0.6,0-1.2-0.4-1.7c-0.4-0.5-1-0.7-1.7-0.7 c-0.7,0-1.3,0.2-1.8,0.7c-0.5,0.5-0.8,1-1,1.7l-2.4,16.8c-0.1,0.6,0.1,1.2,0.4,1.7C435,67,435.5,67.2,436.2,67.2z"></path> <path class="st1" d="M488.4,67.2h3.6l-2.6,19.2c-1,0.2-2.1,0.4-3.4,0.6c-1.1,0.2-2.5,0.3-4.1,0.4c-1.6,0.1-3.4,0.2-5.5,0.2 c-1.9,0-3.7-0.4-5.4-1.1s-3.1-1.7-4.3-2.9c-1.2-1.2-2.1-2.6-2.7-4.3c-0.6-1.6-0.8-3.4-0.5-5.2l5.9-41.8h-3.6l0.5-3.6l24-16.8h3.6 l-2,14.4h6l-0.8,6h-6l-4.6,32.4c-0.1,0.6,0.1,1.2,0.5,1.7C487.3,67,487.8,67.2,488.4,67.2z"></path> <path class="st1" d="M500.8,26.4h21.6l-8.4,60h-21.6L500.8,26.4z M502.9,11.9c0.5-3.3,1.8-5.7,4-7.2c2.2-1.5,4.9-2.3,8.1-2.3 c3.3,0,5.8,0.8,7.6,2.3c1.8,1.5,2.4,3.9,1.9,7.2c-0.5,3.4-1.8,5.8-4,7.4c-2.2,1.6-4.9,2.3-8.2,2.3c-3.2,0-5.7-0.8-7.5-2.3 C503.1,17.7,502.4,15.2,502.9,11.9z"></path> <path class="st1" d="M549.7,25.2c3.6,0,6.8,0.5,9.6,1.5c2.8,1,5.1,2.4,7,4.3c1.8,1.9,3.1,4.2,3.9,6.8c0.8,2.7,0.9,5.7,0.4,8.9 L568,66c-0.5,3.3-1.5,6.3-3,8.9c-1.5,2.7-3.5,5-5.8,6.8c-2.4,1.9-5.1,3.3-8.2,4.3c-3.1,1-6.4,1.5-10,1.5s-6.8-0.5-9.6-1.5 c-2.8-1-5.1-2.4-7-4.3c-1.9-1.9-3.2-4.2-4-6.8c-0.8-2.7-0.9-5.7-0.4-8.9l2.6-19.2c0.5-3.3,1.5-6.3,3-8.9c1.5-2.7,3.5-5,5.9-6.8 c2.4-1.9,5.1-3.3,8.2-4.3C542.8,25.7,546.1,25.2,549.7,25.2z M548.9,48c0.2-0.6,0-1.2-0.4-1.7c-0.4-0.5-1-0.7-1.6-0.7 c-0.6,0-1.2,0.2-1.7,0.7c-0.5,0.5-0.9,1-1,1.7l-2.4,16.8c-0.1,0.6,0.1,1.2,0.5,1.7c0.4,0.5,0.9,0.7,1.6,0.7c0.6,0,1.2-0.2,1.8-0.7 c0.6-0.5,0.9-1,1-1.7L548.9,48z"></path> <path class="st1" d="M599.9,48c0.2-0.6,0-1.2-0.4-1.7c-0.4-0.5-1-0.7-1.7-0.7c-0.7,0-1.3,0.2-1.8,0.7c-0.5,0.5-0.8,1-1,1.7 l-5.4,38.4h-21.6l8.4-60h19.2l0.5,10.1c1-3.2,3-5.9,5.8-8c2.8-2.2,5.9-3.2,9.4-3.2c1.8,0,3.5,0.4,5.1,1.1c1.6,0.7,2.9,1.7,3.9,2.9 c1,1.2,1.8,2.6,2.2,4.3c0.4,1.6,0.5,3.4,0.3,5.2l-6.7,47.8h-21.6L599.9,48z"></path> </g> <path class="st2" d="M66.9,69.6C77.7,58.4,81,21.6,81.8,9.5c-16,4.3-27.1,4.7-36.3,5.2c-11,0.3-17.7,0.6-26,8.7 C6,36.7,8,59.3,20.1,70.5C33.2,83.1,54.2,82.8,66.9,69.6z"></path> <path class="st3" d="M75.8,16.7c-12.8,2.8-22.4,3.2-29.9,3.5c-4.7,0.2-8.3,0.4-11.3,0.9l9.2,8.8c1.1,1.1,1.1,2.8,0.1,3.9 c-1.1,1.1-2.8,1.1-3.9,0.1L28.7,23.2c-1.7,0.9-3.3,2.2-5.1,4l7.6,7.3c1.1,1.1,1.1,2.8,0.1,3.9c-1.1,1.1-2.8,1.1-3.9,0.1l-7.2-7 C13,42.4,14.3,57.2,24,66.5c10.9,10.6,28.4,10.2,39-0.7C69.6,59,74,35.9,75.8,16.7z"></path> <g> <path class="st4" d="M87.6,5.9c0.1-1.8-1.6-3.2-3.5-2.8c-17.3,5.1-29.2,5.6-38.7,6c-12,0.5-20.6,0.9-30.1,10.7 c-14.8,15.3-14.3,39.9,1,54.7s39.9,14.3,54.7-1C85.2,58.6,87.5,8.1,87.6,5.9z M19.6,23.4c8.3-8.1,15-8.4,26-8.7 c9.1-0.4,20.3-0.9,36.3-5.2c-0.8,12-4.2,48.9-14.9,60.1c-12.7,13.1-33.7,13.5-46.8,0.8C8,59.3,6,36.7,19.6,23.4z"></path> <path class="st4" d="M62.9,61.9c-1.1-1.1-2.9-1-3.9,0.1c-8.4,8.7-22.4,9-31.1,0.6c-1.1-1.1-2.9-1-3.9,0.1c-1.1,1.1-1,2.9,0.1,3.9 c10.9,10.6,28.4,10.2,39-0.7C64,64.7,64,62.9,62.9,61.9z"></path> </g> <g> </g> <g> </g> <g> </g> <g> </g> <g> </g> <g> </g> </svg> 