<?xml version="1.0" encoding="UTF-8"?><svg id="Layer_1" xmlns="http://www.w3.org/2000/svg" viewBox="0 0 83.13 82.21"><defs><style>.cls-1{fill:#174f82;}.cls-2{fill:#56aadd;}</style></defs><path class="cls-2" d="m71.65,13.68c-12.76,2.76-22.42,3.18-29.91,3.51-4.7.21-8.27.37-11.3.94l9.16,8.83c1.1,1.06,1.13,2.81.07,3.92s-2.81,1.13-3.92.07l-11.18-10.78c-1.71.95-3.33,2.24-5.09,4.01l7.56,7.29c1.1,1.06,1.13,2.81.07,3.92s-2.81,1.13-3.92.07l-7.21-6.95c-7.14,10.85-5.79,25.61,3.9,34.94,10.94,10.55,28.41,10.24,38.96-.71,6.58-6.83,11-29.94,12.81-49.07Z"/><path class="cls-1" d="m83.13,2.87c.05-1.81-1.56-3.25-3.54-2.78-17.34,5.05-29.19,5.57-38.73,5.98-11.98.54-20.64.92-30.06,10.68-14.79,15.34-14.35,39.86.99,54.65s39.86,14.35,54.65-.99c14.31-14.84,16.61-65.4,16.68-67.54ZM15.11,20.3c8.28-8.08,15.03-8.37,26-8.68,9.12-.4,20.32-.9,36.27-5.16-.81,12.04-4.16,48.92-14.93,60.09-12.67,13.13-33.66,13.51-46.79.85-12.12-11.17-14.14-33.74-.55-47.1Z"/><path class="cls-1" d="m58.39,58.79c-1.1-1.06-2.85-1.03-3.92.07-8.43,8.74-22.39,8.99-31.13.56-1.1-1.06-2.85-1.03-3.92.07s-1.03,2.85.07,3.92c10.94,10.55,28.41,10.24,38.96-.71,1.06-1.1,1.03-2.85-.07-3.92Z"/></svg>